<?xml version="1.0" standalone="no"?>
<!DOCTYPE svg PUBLIC "-//W3C//DTD SVG 20010904//EN"
 "http://www.w3.org/TR/2001/REC-SVG-20010904/DTD/svg10.dtd">
<svg version="1.0" xmlns="http://www.w3.org/2000/svg"
 width="840.000000pt" height="220.000000pt" viewBox="0 0 840.000000 220.000000"
 preserveAspectRatio="xMidYMid meet">

<g transform="translate(0.000000,220.000000) scale(0.100000,-0.100000)"
fill="#000000" stroke="none">
<path d="M975 1752 c-16 -7 -12 -10 21 -15 68 -11 184 -76 245 -137 151 -150
183 -383 82 -590 -20 -41 -28 -50 -31 -35 -10 58 -24 93 -46 117 -22 22 -23
28 -11 38 22 19 18 66 -7 90 -32 30 -94 22 -126 -16 -16 -19 -20 -29 -12 -34
6 -4 10 -16 9 -26 -5 -32 11 -64 32 -64 16 0 18 -3 9 -19 -13 -25 -40 -34
-115 -37 -75 -3 -115 4 -115 21 0 12 -21 26 -45 30 -5 0 -44 34 -85 74 -134
130 -338 267 -425 285 l-30 6 5 -507 5 -508 3 499 2 498 28 -7 c39 -9 136 -65
229 -132 100 -72 243 -200 243 -218 0 -7 3 -15 8 -17 4 -1 20 -18 35 -37 20
-23 25 -37 17 -45 -7 -9 -3 -19 12 -36 13 -14 23 -19 26 -12 6 20 22 13 22 -8
0 -11 -7 -23 -15 -26 -18 -7 -19 -27 -2 -55 10 -18 8 -23 -17 -45 -15 -14 -41
-28 -57 -31 -16 -3 -26 -10 -23 -15 6 -9 -27 -4 -80 13 -55 17 -37 1 48 -42
68 -35 82 -46 73 -57 -8 -10 -7 -16 3 -22 11 -7 11 -15 -5 -50 -20 -45 -90
-114 -105 -105 -6 4 -10 2 -10 -4 0 -19 42 -23 79 -8 20 8 43 18 52 20 11 4
15 13 12 29 -4 27 33 92 48 82 13 -8 38 26 32 43 -4 9 4 13 23 13 75 1 194 31
269 69 341 169 414 597 148 872 -67 70 -126 107 -220 140 -63 22 -206 34 -238
21z m-32 -757 c25 -10 35 -20 31 -30 -9 -21 -17 -19 -49 15 -33 34 -31 36 18
15z m207 -65 c0 -37 -13 -39 -28 -5 -16 34 -15 35 8 35 16 0 20 -7 20 -30z
m-102 -52 c6 -18 13 -41 17 -50 5 -13 -2 -21 -30 -32 -47 -20 -45 -20 -45 5 0
16 4 19 20 14 18 -6 20 -2 20 44 0 59 5 64 18 19z"/>
<path d="M1696 1221 c-12 -19 3 -31 38 -31 58 0 61 -10 61 -241 0 -233 -1
-236 -70 -248 -20 -3 -36 -10 -35 -16 0 -6 92 -10 258 -9 291 2 396 16 515 73
133 64 196 182 153 286 -16 38 -6 47 27 22 16 -11 17 -31 15 -182 l-3 -170
-32 -10 c-63 -18 -32 -25 117 -25 149 0 180 7 118 25 -33 10 -33 10 -36 83 -3
66 -1 72 17 72 12 0 31 -17 50 -43 42 -62 103 -114 148 -126 50 -14 733 -15
733 -1 0 6 -10 10 -22 10 -48 0 -55 15 -30 65 l22 46 82 -3 82 -3 23 -40 c25
-44 17 -65 -24 -65 -14 0 -21 -4 -18 -10 7 -12 425 -14 425 -2 0 5 -19 12 -42
18 -54 12 -59 31 -50 178 l7 111 95 -153 c125 -200 117 -200 232 -9 128 210
117 207 118 35 0 -136 -2 -148 -19 -158 -11 -5 -29 -10 -41 -10 -12 0 -18 -4
-15 -10 4 -6 68 -10 161 -10 96 0 154 4 154 10 0 6 -10 10 -22 10 -45 0 -52
15 -60 107 -3 48 -7 125 -7 170 -1 73 1 84 19 93 11 6 25 8 30 5 5 -3 54 -93
110 -201 l102 -195 51 3 52 3 90 167 c50 92 93 169 96 172 3 3 52 -73 109
-170 l103 -175 50 3 50 3 57 114 57 113 6 -39 c13 -78 82 -142 190 -175 57
-17 86 -20 170 -15 123 6 182 26 248 85 34 31 52 56 62 90 l15 47 -5 -90 c-6
-93 -16 -115 -55 -115 -10 0 -18 -4 -18 -10 0 -6 58 -10 155 -10 97 0 155 4
155 10 0 6 -11 10 -24 10 -35 0 -44 17 -48 93 -3 64 -2 67 19 67 15 0 35 -17
61 -52 91 -123 107 -128 362 -128 127 0 200 4 200 10 0 6 -8 10 -18 10 -43 0
-53 21 -50 104 l3 79 106 -101 107 -102 111 0 c71 0 111 4 111 11 0 5 4 8 9 5
26 -17 163 -26 226 -16 118 19 175 61 175 130 0 57 -45 90 -175 129 -85 25
-115 45 -115 75 0 29 17 44 58 52 55 11 104 -5 142 -46 45 -48 64 -42 54 18
-8 52 -21 57 -159 57 -87 0 -107 -3 -150 -25 -92 -46 -107 -124 -33 -170 18
-11 70 -32 116 -47 86 -26 120 -47 123 -73 4 -39 -3 -52 -38 -66 -65 -28 -150
-2 -209 63 -20 22 -37 31 -47 27 -14 -5 -14 -11 -2 -52 8 -25 13 -47 12 -48
-1 0 -16 3 -33 7 -26 8 -240 188 -259 219 -8 13 4 23 107 86 51 30 93 48 123
51 29 4 45 10 45 19 0 11 -27 14 -130 14 -80 0 -130 -4 -130 -10 0 -5 11 -10
24 -10 14 0 27 -4 31 -9 5 -9 -96 -97 -173 -150 l-33 -23 3 84 3 83 33 10 c17
5 32 13 32 17 0 12 -298 10 -305 -2 -3 -5 3 -10 15 -10 12 0 30 -5 41 -10 18
-10 19 -23 19 -178 0 -172 -4 -192 -41 -192 -15 0 -120 100 -167 159 l-19 24
51 26 c96 49 101 116 12 160 -47 23 -61 25 -268 29 -158 3 -218 2 -218 -7 0
-6 11 -11 24 -11 35 0 43 -17 49 -100 4 -56 3 -69 -5 -50 -22 55 -38 76 -75
106 -63 48 -141 69 -263 69 -124 0 -186 -16 -248 -62 -24 -19 -43 -31 -41 -26
20 44 77 138 97 158 14 14 42 28 64 31 21 4 37 11 36 16 -2 5 -7 9 -11 9 -4
-1 -77 -1 -162 -1 -97 0 -155 -4 -155 -10 0 -5 13 -10 29 -10 40 0 81 -17 81
-32 0 -15 -118 -290 -129 -301 -4 -4 -56 76 -115 178 l-108 185 -44 0 -44 0
-92 -185 c-51 -102 -95 -185 -98 -185 -7 1 -140 297 -140 314 0 14 29 26 68
26 13 0 22 5 20 10 -4 13 -421 16 -425 3 -2 -4 18 -15 44 -23 38 -12 52 -23
70 -55 13 -22 23 -42 23 -45 0 -3 -46 -5 -102 -5 l-102 0 -76 -122 c-42 -67
-78 -124 -80 -127 -3 -2 -45 54 -94 125 l-89 129 -113 0 c-64 0 -115 -4 -119
-10 -4 -6 5 -10 19 -10 14 0 35 -9 47 -21 18 -18 19 -28 14 -92 -11 -128 -26
-232 -35 -241 -10 -10 -33 26 -141 222 l-84 153 -34 -3 c-32 -3 -38 -10 -133
-173 -55 -93 -108 -179 -119 -190 -16 -16 -36 -21 -106 -24 -106 -4 -113 2
-113 101 l0 69 67 -3 c63 -3 69 -5 81 -31 8 -16 20 -27 29 -25 22 4 22 142 1
146 -8 2 -23 -9 -32 -23 -15 -23 -23 -25 -82 -25 l-65 0 3 73 3 72 50 3 c84 5
114 -4 132 -44 10 -20 24 -34 35 -34 19 0 21 13 12 73 l-7 37 -228 0 c-126 0
-229 -3 -229 -7 0 -5 15 -15 33 -23 l32 -15 3 -159 c3 -171 -1 -186 -47 -186
-29 0 -76 38 -146 119 l-46 53 48 22 c26 13 54 30 61 39 21 25 18 75 -7 101
-37 39 -84 48 -305 53 l-209 6 -43 32 c-50 38 -102 60 -199 81 -92 20 -638 33
-649 15z m546 -63 c156 -67 182 -276 48 -390 -72 -62 -190 -79 -235 -33 -25
24 -25 25 -25 229 0 184 2 206 18 216 25 15 136 3 194 -22z m3979 -111 c100
-66 94 -254 -10 -324 -99 -67 -221 24 -221 164 0 68 18 110 64 151 30 27 45
32 85 32 33 0 58 -7 82 -23z m-3308 1 c85 -45 47 -168 -52 -168 l-41 0 0 90 0
90 36 0 c19 0 45 -5 57 -12z m3851 -13 c23 -21 27 -32 24 -67 -2 -35 -9 -46
-37 -65 -19 -13 -49 -23 -67 -23 l-34 0 0 90 0 90 44 0 c32 0 50 -6 70 -25z
m-2911 -130 c15 -31 27 -60 27 -65 0 -6 -27 -10 -60 -10 -33 0 -60 4 -60 10 0
14 53 120 60 120 3 0 18 -25 33 -55z"/>
</g>
</svg>
